<?xml version="1.0" encoding="utf-8"?>
<!-- Generator: Adobe Illustrator 19.0.0, SVG Export Plug-In . SVG Version: 6.00 Build 0)  -->
<svg version="1.1" id="Layer_1" xmlns="http://www.w3.org/2000/svg" xmlns:xlink="http://www.w3.org/1999/xlink" x="0px" y="0px"
	 viewBox="194 -104 1000 1000" style="enable-background:new 194 -104 1000 1000;" xml:space="preserve">
<style type="text/css">
	.st0{fill:#FFFFFF;}
</style>
<g>
	<path class="st0" d="M1111.4,886H276.6c-40.1,0-72.6-32.5-72.6-72.6V-21.4c0-40.1,32.5-72.6,72.6-72.6h326.7V14.9H385.5
		c-40.1,0-72.6,32.5-72.6,72.6v617c0,40.1,32.5,72.6,72.6,72.6h617c40.1,0,72.6-32.5,72.6-72.6V523H1184v290.4
		C1184,853.5,1151.5,886,1111.4,886z M1147.7,377.9h-36.3c-20.1,0-36.3-16.3-36.3-36.3V97.1L742.2,429.9
		c-14.2,14.2-37.1,14.2-51.3,0l-25.7-25.7c-14.2-14.2-14.2-37.2,0-51.3l338-338H784.7c-20.1,0-36.3-16.3-36.3-36.3v-36.3
		c0-20,16.2-36.3,36.3-36.3h326.7h36.3c20.1,0,36.3,16.3,36.3,36.3v36.3v363C1184,361.6,1167.8,377.9,1147.7,377.9z"/>
</g>
</svg>
