<?xml version="1.0" encoding="utf-8"?>
<!-- Generator: Adobe Illustrator 19.0.0, SVG Export Plug-In . SVG Version: 6.00 Build 0)  -->
<svg version="1.1" id="Layer_1" xmlns="http://www.w3.org/2000/svg" xmlns:xlink="http://www.w3.org/1999/xlink" x="0px" y="0px"
	 viewBox="194 -104 1000 1000" style="enable-background:new 194 -104 1000 1000;" xml:space="preserve">
<style type="text/css">
	.st0{fill:#FFFFFF;}
</style>
<g>
	<path class="st0" d="M285.9-12.7L1102,803.4L285.9-12.7z"/>
	<path class="st0" d="M1102.1,885.4c-21,0-41.9-8-57.9-24L228,45.3c-32-32-32-83.9,0-115.9s83.9-32,115.9,0L1160,745.5
		c32,32,32,83.9,0,115.9C1144,877.4,1123,885.4,1102.1,885.4z"/>
	<path class="st0" d="M1102.1-10.2L287.2,804.7L1102.1-10.2z"/>
	<path class="st0" d="M287.2,886.6c-21,0-41.9-8-57.9-24c-32-32-32-83.9,0-115.9l814.8-814.8c32-32,83.9-32,115.9,0s32,83.9,0,115.9
		L345.1,862.6C329.1,878.6,308.1,886.6,287.2,886.6z"/>
</g>
</svg>
