<?xml version="1.0" encoding="utf-8"?>
<!-- Generator: Adobe Illustrator 19.0.0, SVG Export Plug-In . SVG Version: 6.00 Build 0)  -->
<svg version="1.1" id="Слой_1" xmlns="http://www.w3.org/2000/svg" xmlns:xlink="http://www.w3.org/1999/xlink" x="0px" y="0px"
	 viewBox="-289 381 32 32" style="enable-background:new -289 381 32 32;" xml:space="preserve">
<style type="text/css">
	.st0{fill:#FFFFFF;}
</style>
<g id="Menu">
	<path class="st0" d="M-288,388h30c0.6,0,1-0.4,1-1s-0.4-1-1-1h-30c-0.6,0-1,0.4-1,1S-288.6,388-288,388z"/>
	<path class="st0" d="M-258,396h-30c-0.6,0-1,0.4-1,1s0.4,1,1,1h30c0.6,0,1-0.4,1-1S-257.4,396-258,396z"/>
	<path class="st0" d="M-258,406h-30c-0.6,0-1,0.4-1,1s0.4,1,1,1h30c0.6,0,1-0.4,1-1S-257.4,406-258,406z"/>
</g>
</svg>
